<svg xmlns="http://www.w3.org/2000/svg" width="1280" height="1280">
  <path d="M0 0h1280v1280H0Zm690 495-5 4-3 3-12 7-13 5-1 1v66h-2l-2-4-9-8-11-5-8-2h-23l-13 4-11 6-9 7-8 10-7 14-3 10-1 5v22l3 12 5 12 8 11 4 5 13 9 12 5 11 2h17l12-3 12-7 7-6 2-3 1 16 5 1 31-1V495Zm-538 11v188l41-1v-58h44l13-2 12-4 12-7 10-9 7-10 5-12 2-8 1-17-2-14-5-13-8-11-9-9-16-8-11-3-13-2Zm558 0v187l2 1 34-1v-17l10 10 9 6 10 3 17 1 17-3 14-7 9-7v-2h2l8-11 5-10 4-14 1-7v-11l-2-12-5-15-6-10-9-10-9-7-10-5-12-3h-23l-10 3-9 6-9 8-3 3v-76Zm234 51-5 3-3 6 2 6 3 4 7 1 6-3 2-4-1-7-4-5Zm-35 0-5 2-3 4v8l5 5h8l5-4 1-7-4-6-4-2Zm-445 4-14 2-10 3-15 8-11 10-7 10-6 14-2 7v26l3 11 5 11 6 9 9 9 11 7 12 5 14 3h21l14-3 16-8 11-9 9-12 5-11 3-11 1-8v-10l-2-13-5-13-7-12-10-10-13-8-15-5-14-2Zm-86 2-12 4-11 8-10 13-1-23h-37l-1 128h39l1-63 2-8 5-10 7-7 11-4 5-1 19 1v-37l-3-1Zm614 2 4 7 7 9 9 12 12 16 12 17 1 3-13 18-12 17-11 15-8 11-1 4h41l8-11 8-12 10-14 1-1 7 11 11 15 7 11 39 1 3-1-2-5-16-21-7-10-12-16-6-9-3-5 13-18 11-15 10-13 10-13 1-3h-42l-6 7-9 13-9 14-2 1-2-4-14-20-7-10-2-1Zm-122 23-5 5-1 5 3 7 3 2h8l5-5 1-6-2-5-4-3Zm36 0-5 5v9l5 5h8l5-5 1-5-3-7-3-2Zm37 0-4 2-3 7 3 7 4 3h7l5-5 1-6-4-7-2-1Zm35 0-5 6v7l4 5 2 1h7l5-4 1-2-1-9-5-4Zm-107 30-5 4-1 2v8l5 5h8l5-5 1-5-3-6-3-3Zm36 0-6 5v9l3 4 6 2 7-3 3-5-1-7-5-5Zm35 0-5 6-1 4 3 7 3 2h9l4-4 1-8-6-7Zm37 0-5 4-1 2v8l5 5h9l5-6v-6l-3-5-3-2Zm-110 31-4 5v9l4 4 7 1 6-3 2-5-1-6-5-5Zm36 0-4 5v8l4 5 7 1 6-4 2-6-3-7-2-2Zm37 0-5 5v8l5 5 6 1 5-3 3-5-1-7-5-4Zm36 0-4 3-1 3v7l4 5 8 1 6-4 1-2v-7l-5-6Zm-72 30-5 5v8l2 4 3 2h8l5-5 1-7-4-6-2-1Zm36 0-5 5v8l4 5 2 1h7l5-5 1-7-4-6-2-1Zm92 25-5 4-1 2v6l5 5h9l4-4 1-6-3-5-3-2Zm-41 2-1 24-8-4h-15l-8 4-6 5-5 10-1 4v8l3 8 4 6 6 5 6 3h16l9-5 1 4 3 1 12-1v-71Zm-217 1-9 3-8 6-4 9v7l3 7 5 5 8 4 21 6h2v9l-7 2h-9l-11-4-6-3-4 2-4 6 1 4 10 6 9 3 12 1 11-2 8-4 6-7 1-3v-11l-4-8-9-6-21-6-5-3 1-7 3-1h14l10 4 3 1 5-9-1-4-10-5-9-2Zm56 7-1 13h-7v12l8 1v26l3 7 6 5 3 1h14l6-2-1-7-3-5-8 1-4-3-1-23 15-1v-10l-1-1h-14v-14Zm253 12-10 4-3 2v2l-4 2-4 7-1 4v13l4 8 7 7 10 4h18l9-4 8-7 4-8v-13l-5-10-9-8-8-3Zm-206 1-1 1v30l2 10 5 7 8 4h15l10-6-1 3 3 3h10l3-1v-50l-1-1h-14l-1 1-1 26-2 9-10 2-7-1-2-11v-25l-1-1Zm151 0-1 1v50l2 1h14v-52Z"/>
  <path d="M193 539h41l10 3 9 7 5 10 1 4v13l-3 10-5 8-10 7-14 3h-34Zm421 53h14l9 3 5 2v2l4 2 8 11 2 7v18l-4 11-8 10-10 6-10 2-11-1-10-4-7-6-7-11-2-7-1-11 3-12 3-6 5-7h2v-2l8-5Zm158 0h14l9 3 9 6 7 11 3 10v12l-4 13-6 9-8 6-7 3-5 1h-9l-10-3-9-6-8-11-3-10v-15l3-9 5-8 7-7 8-4Zm-312 1h17l10 4 6 5 6 9 3 11v14l-3 10-6 10-9 6-9 3h-12l-10-3-8-6-4-5-4-8-2-9v-12l3-10 6-9 8-7Zm519 145 7 2 5 4 2 5v7l-3 6-6 4h-10l-5-3-3-5-1-6 3-8 6-5Zm109 1h10l7 6 1 3v10l-3 5-5 3h-10l-6-4-3-6v-7l4-6Z"/>
</svg>
