<svg xmlns="http://www.w3.org/2000/svg" width="987" height="294" viewBox="0 0 987 294">
<g>
<path d="M 655.18 284.79 C662.83,281.27 666.29,276.14 666.75,267.63 C667.40,255.61 661.13,249.62 642.95,244.90 C636.68,243.27 630.53,241.27 629.28,240.45 C626.85,238.86 626.37,236.05 627.99,233.01 C630.50,228.33 643.26,228.13 652.22,232.63 C654.81,233.93 657.36,235.00 657.87,235.00 C658.87,235.00 664.00,226.80 664.00,225.20 C664.00,223.39 655.91,218.93 649.77,217.36 C641.44,215.23 628.99,215.88 623.50,218.74 C613.59,223.89 608.66,234.65 612.06,243.68 C614.72,250.74 621.24,254.64 637.71,259.06 C648.92,262.06 651.00,263.37 651.00,267.40 C651.00,271.64 649.47,272.89 643.03,273.91 C636.11,275.00 629.84,273.72 621.82,269.57 L 615.13 266.12 L 611.96 271.06 C610.22,273.78 609.02,276.60 609.30,277.33 C610.02,279.21 623.19,285.93 628.24,287.00 C630.58,287.49 636.33,287.78 641.00,287.64 C647.68,287.45 650.71,286.84 655.18,284.79 ZM 716.00 286.56 C718.87,285.50 719.47,284.80 719.31,282.66 C719.21,281.22 718.54,278.80 717.81,277.29 C716.63,274.83 716.04,274.57 712.19,274.85 C709.47,275.05 707.00,274.57 705.45,273.56 C703.08,272.00 703.00,271.58 703.00,260.02 L 703.00 248.09 L 710.25 247.79 L 717.50 247.50 L 717.81 243.18 C718.25,237.09 716.97,236.00 709.38,236.00 L 703.00 236.00 L 703.00 229.50 L 703.00 223.00 L 695.50 223.00 L 688.00 223.00 L 688.00 229.50 L 688.00 236.00 L 684.00 236.00 L 680.00 236.00 L 680.00 241.94 L 680.00 247.88 L 683.75 248.19 L 687.50 248.50 L 688.01 262.50 C688.64,280.22 690.10,283.49 698.74,286.57 C703.45,288.25 711.42,288.25 716.00,286.56 ZM 764.77 286.45 C766.81,285.60 769.49,283.95 770.74,282.78 C771.98,281.61 773.05,281.07 773.11,281.58 C773.16,282.08 773.28,283.40 773.36,284.50 C773.49,286.29 774.32,286.53 781.41,286.79 L 789.32 287.09 L 788.66 269.79 C788.30,260.28 788.00,248.77 788.00,244.21 L 788.00 235.92 L 780.41 236.21 L 772.83 236.50 L 772.64 251.00 C772.43,266.96 771.23,271.20 766.39,273.04 C762.62,274.48 756.73,274.20 754.26,272.47 C751.33,270.41 750.59,265.98 750.54,250.00 L 750.50 236.50 L 742.50 236.50 L 734.50 236.50 L 734.51 254.50 C734.52,271.31 734.67,272.81 736.84,277.24 C739.40,282.45 742.73,285.30 748.04,286.83 C753.31,288.34 760.64,288.18 764.77,286.45 ZM 844.95 284.65 C849.87,281.40 850.00,281.39 850.00,284.54 C850.00,287.06 850.07,287.08 857.25,286.79 L 864.50 286.50 L 864.50 251.00 L 864.50 215.50 L 856.75 215.21 L 849.00 214.92 L 849.00 227.06 C849.00,238.26 848.86,239.15 847.25,238.45 C836.42,233.75 832.03,233.21 824.03,235.58 C812.48,239.01 803.91,252.17 805.35,264.28 C806.47,273.78 813.87,283.33 822.63,286.59 C828.83,288.90 839.99,287.93 844.95,284.65 ZM 963.14 285.17 C972.73,280.53 978.94,271.62 978.98,262.43 C979.03,251.31 972.95,242.19 962.16,237.18 C954.03,233.40 942.62,233.46 934.90,237.32 C924.20,242.66 919.79,249.07 919.16,260.16 C918.55,270.89 921.50,276.81 930.55,283.03 C936.20,286.92 940.75,287.97 950.54,287.65 C956.37,287.45 959.83,286.77 963.14,285.17 ZM 901.00 261.50 L 901.00 236.00 L 893.00 236.00 L 885.00 236.00 L 885.00 261.50 L 885.00 287.00 L 893.00 287.00 L 901.00 287.00 L 901.00 261.50 ZM 900.16 227.00 C902.69,224.46 903.06,223.49 902.50,220.75 C901.02,213.37 891.63,210.27 886.45,215.45 C882.45,219.46 883.50,227.05 888.32,228.99 C892.88,230.83 897.02,230.13 900.16,227.00 ZM 771.85 204.47 C775.60,201.32 776.63,197.13 774.63,193.25 C772.44,189.02 770.48,187.76 765.89,187.64 C762.58,187.55 761.34,188.06 759.40,190.32 C755.87,194.42 756.09,200.25 759.92,204.08 C763.63,207.78 767.76,207.92 771.85,204.47 ZM 806.48 206.01 C809.73,204.77 812.36,198.93 811.48,194.92 C810.67,191.20 805.64,187.00 802.00,187.00 C800.40,187.00 797.81,188.13 796.08,189.59 C793.51,191.75 793.00,192.90 793.00,196.51 C793.00,200.02 793.59,201.43 796.08,203.92 C799.28,207.13 802.06,207.69 806.48,206.01 ZM 339.62 203.50 C365.33,199.14 386.09,179.91 392.52,154.50 C394.86,145.27 394.88,128.77 392.57,120.09 C387.62,101.48 375.52,86.38 358.80,77.91 C348.15,72.51 338.95,70.53 324.50,70.52 C309.14,70.50 303.74,71.64 291.50,77.50 C275.33,85.23 263.60,98.52 257.86,115.58 C255.33,123.11 255.00,125.52 255.00,136.34 C255.00,150.64 256.36,156.94 261.98,168.75 C270.74,187.14 291.69,201.38 313.76,203.95 C324.50,205.20 330.13,205.10 339.62,203.50 ZM 490.00 201.00 C496.89,198.00 504.81,192.27 508.88,187.33 L 512.00 183.54 L 512.00 192.77 L 512.00 202.00 L 530.00 202.00 L 548.00 202.00 L 548.00 103.00 C548.00,31.50 547.69,4.00 546.90,4.00 C546.29,4.00 543.58,5.99 540.88,8.42 C536.17,12.66 520.52,21.11 514.75,22.54 L 512.00 23.22 L 512.00 56.11 C512.00,74.20 511.66,88.99 511.25,88.99 C510.84,88.98 508.25,86.70 505.50,83.92 C485.53,63.72 444.95,66.35 423.34,89.25 C417.16,95.79 410.94,106.33 407.86,115.50 C405.78,121.68 405.50,124.32 405.53,138.00 C405.55,152.53 405.73,153.97 408.38,161.00 C414.88,178.29 425.85,190.94 440.50,198.05 C451.52,203.39 454.47,203.94 470.50,203.65 C482.71,203.42 485.20,203.08 490.00,201.00 ZM 657.57 202.93 C674.48,199.88 692.05,186.15 699.79,169.92 C705.53,157.90 707.36,149.70 707.26,136.50 C707.17,124.66 704.62,114.16 699.24,103.50 C690.96,87.10 674.80,74.97 656.58,71.48 C646.90,69.63 640.41,69.63 631.69,71.48 C622.36,73.46 616.88,76.41 608.95,83.75 C605.24,87.19 601.93,90.00 601.60,90.00 C601.27,90.00 601.00,73.12 601.00,52.50 L 601.00 15.00 L 583.50 15.00 L 566.00 15.00 L 566.00 108.52 L 566.00 202.05 L 583.64 201.77 L 601.29 201.50 L 601.08 192.04 L 600.87 182.57 L 604.96 187.22 C615.18,198.82 626.49,203.93 642.07,203.97 C647.33,203.99 654.30,203.52 657.57,202.93 ZM 49.00 173.12 L 49.00 144.25 L 73.25 143.74 C93.50,143.32 98.77,142.90 105.19,141.18 C129.00,134.79 144.47,120.78 151.44,99.30 C155.13,87.93 155.20,70.04 151.59,57.87 C147.60,44.36 134.87,29.47 122.12,23.38 C106.28,15.81 104.91,15.64 53.75,15.24 L 8.00 14.87 L 8.00 108.44 L 8.00 202.00 L 28.50 202.00 L 49.00 202.00 L 49.00 173.12 ZM 200.17 178.50 C199.79,141.58 201.30,131.70 209.02,120.48 C214.75,112.14 226.96,107.30 239.50,108.38 C243.35,108.72 247.51,109.27 248.75,109.61 L 251.00 110.23 L 251.00 91.64 L 251.00 73.04 L 248.44 72.40 C243.16,71.07 229.71,72.61 224.00,75.19 C217.27,78.23 208.34,86.24 203.85,93.24 L 200.50 98.46 L 200.22 86.23 L 199.94 74.00 L 181.47 74.00 L 163.00 74.00 L 162.99 132.75 C162.99,165.06 162.70,193.87 162.35,196.77 L 161.72 202.04 L 181.06 201.77 L 200.41 201.50 L 200.17 178.50 ZM 894.17 194.70 C902.84,181.33 915.23,164.00 916.12,164.00 C916.60,164.00 917.00,164.51 917.00,165.14 C917.00,165.77 922.19,173.65 928.54,182.66 C934.88,191.67 940.33,199.70 940.64,200.52 C941.12,201.76 944.56,202.00 962.11,202.00 C974.99,202.00 983.00,201.63 983.00,201.03 C983.00,200.17 964.84,175.24 954.20,161.50 C952.08,158.75 947.73,152.68 944.54,148.00 C941.35,143.32 938.09,138.75 937.29,137.83 C935.56,135.84 938.36,131.72 968.02,92.71 C978.05,79.52 981.00,75.41 981.00,74.60 C981.00,74.27 971.66,74.00 960.24,74.00 L 939.47 74.00 L 930.37 86.75 C925.36,93.76 920.08,101.41 918.62,103.75 C917.17,106.09 915.57,108.00 915.07,108.00 C914.22,108.00 908.52,100.40 895.19,81.52 L 889.88 74.00 L 868.82 74.00 L 847.76 74.00 L 850.31 77.34 C851.71,79.18 855.41,84.24 858.52,88.59 C861.64,92.94 865.63,98.30 867.39,100.50 C869.15,102.70 875.48,111.25 881.47,119.50 C887.45,127.75 892.78,135.07 893.31,135.77 C893.96,136.63 893.77,137.60 892.71,138.77 C891.85,139.72 886.05,147.70 879.83,156.50 C873.60,165.30 866.25,175.56 863.50,179.29 C860.75,183.03 856.14,189.29 853.25,193.22 C850.36,197.14 848.00,200.72 848.00,201.18 C848.00,201.63 857.34,201.98 868.75,201.95 L 889.50 201.90 L 894.17 194.70 ZM 844.70 174.44 C847.54,172.60 848.64,166.95 846.94,162.86 C844.58,157.17 835.59,155.49 831.52,159.98 C829.32,162.41 828.45,169.10 829.97,171.94 C832.46,176.60 839.52,177.79 844.70,174.44 ZM 735.15 174.92 C737.76,173.52 740.06,167.99 739.31,164.91 C737.97,159.42 731.76,156.00 726.65,157.94 C722.43,159.55 721.00,161.84 721.00,167.00 C721.00,171.05 721.43,172.20 723.63,173.93 C726.51,176.19 731.91,176.65 735.15,174.92 ZM 773.15 172.85 C774.21,171.47 774.96,168.79 774.98,166.34 C775.00,162.91 774.46,161.72 771.92,159.59 C767.99,156.28 764.01,156.28 760.08,159.59 C757.49,161.77 757.00,162.89 757.00,166.63 C757.00,170.09 757.58,171.67 759.58,173.67 C761.81,175.90 762.77,176.17 766.74,175.73 C769.99,175.36 771.86,174.52 773.15,172.85 ZM 809.35 172.74 C815.20,164.88 806.98,154.00 798.34,158.18 C794.00,160.27 791.84,164.83 793.06,169.27 C794.42,174.17 797.39,176.14 802.90,175.78 C806.35,175.56 807.74,174.91 809.35,172.74 ZM 735.75 144.22 C742.58,138.96 738.63,127.00 730.06,127.00 C724.66,127.00 721.00,130.82 721.00,136.45 C721.00,138.74 721.56,141.32 722.25,142.18 C725.44,146.18 731.93,147.16 735.75,144.22 ZM 772.60 142.60 C776.40,138.80 776.65,137.49 774.54,132.43 C772.49,127.53 767.40,125.39 762.58,127.40 C758.56,129.08 756.97,131.61 757.07,136.18 C757.17,140.81 758.21,143.00 761.05,144.57 C765.30,146.93 768.89,146.31 772.60,142.60 ZM 808.50 143.59 C809.83,142.26 811.22,139.96 811.59,138.48 C812.56,134.64 809.73,129.32 805.70,127.40 C802.69,125.96 802.04,125.96 798.66,127.37 C794.41,129.15 791.56,134.38 792.59,138.51 C794.27,145.21 803.83,148.26 808.50,143.59 ZM 844.31 143.59 C845.75,142.26 847.22,139.96 847.59,138.48 C849.09,132.53 842.21,125.16 836.51,126.59 C835.12,126.93 832.87,128.55 831.50,130.19 C823.99,139.11 835.81,151.47 844.31,143.59 ZM 733.77 114.93 C739.47,112.94 741.38,104.55 737.22,99.76 C735.04,97.25 729.50,95.93 726.10,97.12 C719.94,99.26 718.68,108.54 723.92,113.22 C727.31,116.25 729.10,116.56 733.77,114.93 ZM 772.06 113.45 C776.46,109.46 776.09,101.41 771.35,98.31 C761.49,91.85 751.65,104.81 760.05,113.20 C762.65,115.80 763.61,116.16 766.67,115.67 C768.64,115.35 771.06,114.35 772.06,113.45 ZM 807.81 113.50 C811.59,110.32 812.43,106.96 810.55,102.47 C807.33,94.75 796.69,94.71 793.47,102.42 C791.69,106.68 792.79,110.45 796.78,113.75 C800.33,116.68 804.14,116.60 807.81,113.50 ZM 843.66 114.07 C847.33,111.83 848.44,109.14 847.58,104.57 C846.38,98.18 839.63,94.59 834.14,97.43 C830.41,99.35 829.00,101.77 829.00,106.21 C829.00,114.19 836.69,118.31 843.66,114.07 ZM 771.43 83.45 C772.73,82.60 774.35,80.56 775.03,78.92 C776.08,76.40 776.00,75.32 774.54,72.08 C772.67,67.95 769.63,66.00 765.04,66.00 C761.37,66.00 757.00,70.95 757.00,75.13 C757.00,78.50 759.33,83.57 761.23,84.33 C763.88,85.40 769.16,84.94 771.43,83.45 ZM 807.64 83.54 C808.79,82.74 810.30,80.70 811.00,79.00 C812.08,76.38 812.02,75.36 810.54,72.08 C808.39,67.33 805.27,65.53 800.51,66.30 C792.36,67.63 789.84,76.84 795.96,82.96 C798.40,85.40 804.55,85.70 807.64,83.54 ZM 828.32 273.39 C822.40,270.47 819.95,260.87 823.41,254.18 C825.68,249.78 832.45,246.49 837.34,247.40 C847.44,249.30 852.16,261.45 845.89,269.42 C841.62,274.84 834.52,276.45 828.32,273.39 ZM 941.67 272.89 C931.97,267.78 933.41,252.85 944.01,248.61 C949.16,246.55 950.76,246.59 954.94,248.83 C961.29,252.24 963.75,260.88 960.54,268.57 C957.96,274.74 949.05,276.78 941.67,272.89 ZM 316.00 172.57 C299.55,168.01 289.83,153.02 291.31,134.50 C292.45,120.37 298.19,110.82 309.02,105.05 C315.00,101.86 316.20,101.59 324.50,101.55 C332.39,101.51 334.20,101.85 339.21,104.31 C346.22,107.75 352.19,114.32 355.15,121.85 C356.89,126.29 357.38,129.65 357.43,137.50 C357.50,146.81 357.27,147.98 354.19,154.50 C349.10,165.25 343.87,169.76 333.29,172.51 C326.56,174.26 322.15,174.28 316.00,172.57 ZM 465.60 172.24 C459.18,170.11 449.88,161.52 446.57,154.68 C445.20,151.83 443.59,146.46 443.01,142.74 C440.59,127.20 449.16,109.90 462.40,103.62 C471.09,99.49 484.90,99.89 494.06,104.53 C499.06,107.07 506.18,114.41 508.50,119.44 C513.08,129.36 513.10,143.61 508.55,153.72 C501.25,169.95 482.72,177.94 465.60,172.24 ZM 621.50 171.15 C614.48,167.81 606.87,160.14 603.70,153.22 C601.91,149.30 601.53,146.62 601.52,137.50 C601.50,127.68 601.78,125.90 604.14,120.88 C609.47,109.51 618.35,102.75 630.04,101.15 C646.80,98.85 659.71,106.04 666.53,121.47 C674.96,140.53 665.58,165.73 647.72,172.01 C639.01,175.07 629.06,174.74 621.50,171.15 ZM 49.24 79.75 L 49.50 47.50 L 69.00 47.65 C91.55,47.82 96.85,48.78 103.65,53.92 C112.71,60.77 116.57,72.86 114.02,86.38 C112.49,94.49 108.63,100.78 102.30,105.45 C94.55,111.17 90.23,112.00 68.30,112.00 L 48.97 112.00 L 49.24 79.75 Z" fill="white"/>
</g>
</svg>
